# xmcd
#
# Track frame offsets: 
#        150
#        14904
#        30740
#        43874
#        61802
#        77050
#        96293
#        108463
#        125333
#        136574
#        153091
#        169068
#        185879
#        203231
#        219455
#        239297
#        252854
#        271403
#        288332
#        305919
#        323730
#
# Disc length: 4587 seconds
#
# Revision: 0
# Processed by: cddbd v1.5.2PL0 Copyright (c) Steve Scherf et al.
# Submitted via: ExactAudioCopy v1.3
#
DISCID=3111e915
DTITLE=The Judds - All-Time Greatest Hits
DYEAR=2017
DGENRE=Country
TTITLE0=Mama He's Crazy
TTITLE1=Why Not Me
TTITLE2=Girls Night Out
TTITLE3=Love Is Alive
TTITLE4=Have Mercy
TTITLE5=Grandpa (Tell Me 'Bout The Good Old Days)
TTITLE6=Rockin' With The Rhythm Of The Rain
TTITLE7=Cry Myself To Sleep
TTITLE8=Don't Be Cruel
TTITLE9=I Know Where I'm Going
TTITLE10=Maybe Your Baby's Got The Blues
TTITLE11=Turn It Loose
TTITLE12=Give A Little Love
TTITLE13=Change Of Heart
TTITLE14=Young Love (Strong Love)
TTITLE15=Let Me Tell You About Love
TTITLE16=One Man Woman
TTITLE17=Born To Be Blue (Single Edit)
TTITLE18=Love Can Build A Bridge (Single Edit)
TTITLE19=One Hundred And Two
TTITLE20=Flies On The Butter (You Can't Go Home Again)
EXTD=
EXTT0=
EXTT1=
EXTT2=
EXTT3=
EXTT4=
EXTT5=
EXTT6=
EXTT7=
EXTT8=
EXTT9=
EXTT10=
EXTT11=
EXTT12=
EXTT13=
EXTT14=
EXTT15=
EXTT16=
EXTT17=
EXTT18=
EXTT19=
EXTT20=
PLAYORDER=
